<?xml version="1.0" encoding="UTF-8" standalone="no"?>
<!DOCTYPE svg PUBLIC "-//W3C//DTD SVG 1.1//EN" "http://www.w3.org/Graphics/SVG/1.1/DTD/svg11.dtd">
<svg width="100%" height="100%" viewBox="0 0 16 16" version="1.1" xmlns="http://www.w3.org/2000/svg" xmlns:xlink="http://www.w3.org/1999/xlink" xml:space="preserve" xmlns:serif="http://www.serif.com/" style="fill-rule:evenodd;clip-rule:evenodd;stroke-linejoin:round;stroke-miterlimit:2;">
    <path d="M3,1C1.892,1 1,1.892 1,3L1,9C1,10.108 1.892,11 3,11L9,11C10.108,11 11,10.108 11,9L11,3C11,1.892 10.108,1 9,1L3,1ZM13,1L13,3L15,3L15,1L13,1ZM3,5C3.554,5 4,5.446 4,6L4,7C4,7.554 3.554,8 3,8C2.446,8 2,7.554 2,7L2,6C2,5.446 2.446,5 3,5ZM9,5C9.554,5 10,5.446 10,6L10,7C10,7.554 9.554,8 9,8C8.446,8 8,7.554 8,7L8,6C8,5.446 8.446,5 9,5ZM13,5L13,7L15,7L15,5L13,5ZM4,9L8,9C7.999,9.357 7.618,9.687 7,9.865C6.382,10.044 5.618,10.044 5,9.865C4.382,9.687 4.001,9.357 4,9ZM13,9L13,11L15,11L15,9L13,9ZM1,13L1,15L3,15L3,13L1,13ZM5,13L5,15L7,15L7,13L5,13ZM9,13L9,15L11,15L11,13L9,13ZM13,13L13,15L15,15L15,13L13,13Z" style="fill:rgb(224,224,224);fill-rule:nonzero;"/>
    <g transform="matrix(1.33419,0,0,1.29262,4.43656,-5.55019)">
        <path d="M2.201,8.227L2.984,4.346L3.586,8.102L5.14,7.376L4.675,9.135L6.559,9.35L4.562,10.235L4.8,11.291L3.835,11.064L2.837,13.413L2.565,11.223L1.679,11.45L1.816,10.394L0.352,9.611L1.702,9.101L1.044,7.66L2.201,8.227Z" style="fill:rgb(255,100,69);"/>
        <g transform="matrix(0.581925,0,0,0.581925,1.17999,4.21032)">
            <path d="M2.201,8.227L2.984,4.346L3.586,8.102L5.14,7.376L4.675,9.135L6.559,9.35L4.562,10.235L4.8,11.291L3.835,11.064L2.837,13.413L2.565,11.223L1.679,11.45L1.816,10.394L0.352,9.611L1.702,9.101L1.044,7.66L2.201,8.227Z" style="fill:rgb(244,255,178);"/>
        </g>
    </g>
    <g transform="matrix(1.33419,0,0,1.29262,-1.39607,-5.73175)">
        <path d="M2.201,8.227L2.984,4.346L3.586,8.102L5.14,7.376L4.675,9.135L6.559,9.35L4.562,10.235L4.8,11.291L3.835,11.064L2.837,13.413L2.565,11.223L1.679,11.45L1.816,10.394L0.352,9.611L1.702,9.101L1.044,7.66L2.201,8.227Z" style="fill:rgb(255,100,69);"/>
        <g transform="matrix(0.581925,0,0,0.581925,1.17999,4.21032)">
            <path d="M2.201,8.227L2.984,4.346L3.586,8.102L5.14,7.376L4.675,9.135L6.559,9.35L4.562,10.235L4.8,11.291L3.835,11.064L2.837,13.413L2.565,11.223L1.679,11.45L1.816,10.394L0.352,9.611L1.702,9.101L1.044,7.66L2.201,8.227Z" style="fill:rgb(244,255,178);"/>
        </g>
    </g>
</svg>
