<?xml version="1.0" encoding="UTF-8" standalone="no"?>
<!DOCTYPE svg PUBLIC "-//W3C//DTD SVG 1.1//EN" "http://www.w3.org/Graphics/SVG/1.1/DTD/svg11.dtd">
<svg width="100%" height="100%" viewBox="0 0 16 16" version="1.1" xmlns="http://www.w3.org/2000/svg" xmlns:xlink="http://www.w3.org/1999/xlink" xml:space="preserve" xmlns:serif="http://www.serif.com/" style="fill-rule:evenodd;clip-rule:evenodd;stroke-linejoin:round;stroke-miterlimit:2;">
    <g id="Multi">
        <path d="M7,0C5.892,0 5,0.892 5,2L12,2C13.108,2 14,2.892 14,4L14,10C15.108,10 16,9.108 16,8L16,2C16,0.892 15.108,0 14,0L7,0Z" style="fill:rgb(141,165,243);fill-opacity:0.39;fill-rule:nonzero;"/>
        <path d="M5,2C3.892,2 3,2.892 3,4L10,4C11.108,4 12,4.892 12,6L12,13C13.108,13 14,12.108 14,11L14,4C14,2.892 13.108,2 12,2L5,2Z" style="fill:rgb(141,165,243);fill-opacity:0.59;fill-rule:nonzero;"/>
        <path d="M3,4C1.892,4 1,4.892 1,6L1,13C1,14.108 1.892,15 3,15L10,15C11.108,15 12,14.108 12,13L12,6C12,4.892 11.108,4 10,4L3,4ZM3,8C3.554,8 4,8.446 4,9L4,10C4,10.554 3.554,11 3,11C2.446,11 2,10.554 2,10L2,9C2,8.446 2.446,8 3,8ZM10,8C10.554,8 11,8.446 11,9L11,10C11,10.554 10.554,11 10,11C9.446,11 9,10.554 9,10L9,9C9,8.446 9.446,8 10,8ZM4,12L9,12C9,12.714 8.523,13.376 7.75,13.732C6.977,14.089 6.023,14.089 5.25,13.732C4.477,13.376 4,12.714 4,12Z" style="fill:rgb(141,165,243);fill-rule:nonzero;"/>
        <g transform="matrix(1.50833,0,0,1.50833,-1.57137,-4.63261)">
            <path d="M2.201,8.227L2.984,4.346L3.586,8.102L5.14,7.376L4.675,9.135L6.559,9.35L4.562,10.235L4.8,11.291L3.835,11.064L2.837,13.413L2.565,11.223L1.679,11.45L1.816,10.394L0.352,9.611L1.702,9.101L1.044,7.66L2.201,8.227Z" style="fill:rgb(255,100,69);"/>
            <g transform="matrix(0.581925,0,0,0.581925,1.17999,4.21032)">
                <path d="M2.201,8.227L2.984,4.346L3.586,8.102L5.14,7.376L4.675,9.135L6.559,9.35L4.562,10.235L4.8,11.291L3.835,11.064L2.837,13.413L2.565,11.223L1.679,11.45L1.816,10.394L0.352,9.611L1.702,9.101L1.044,7.66L2.201,8.227Z" style="fill:rgb(244,255,178);"/>
            </g>
        </g>
        <g transform="matrix(1.4841,0,0,1.4841,5.20081,-4.51003)">
            <path d="M2.201,8.227L2.984,4.346L3.586,8.102L5.14,7.376L4.675,9.135L6.559,9.35L4.562,10.235L4.8,11.291L3.835,11.064L2.837,13.413L2.565,11.223L1.679,11.45L1.816,10.394L0.352,9.611L1.702,9.101L1.044,7.66L2.201,8.227Z" style="fill:rgb(255,100,69);"/>
            <g transform="matrix(0.581925,0,0,0.581925,1.17999,4.21032)">
                <path d="M2.201,8.227L2.984,4.346L3.586,8.102L5.14,7.376L4.675,9.135L6.559,9.35L4.562,10.235L4.8,11.291L3.835,11.064L2.837,13.413L2.565,11.223L1.679,11.45L1.816,10.394L0.352,9.611L1.702,9.101L1.044,7.66L2.201,8.227Z" style="fill:rgb(244,255,178);"/>
            </g>
        </g>
    </g>
</svg>
